# xmcd
#
# Track frame offsets:
#	150
#	15971
#	34900
#	50718
#	65644
#	83953
#	100614
#	117279
#	135367
#	156511
#	172801
#	186690
#	205800
#	227607
#	247131
#	277642
#
# Disc length: 3710 seconds
#
# Revision: 1
# Processed by: cddbd v1.5.2PL0 Copyright (c) Steve Scherf et al.
# Submitted via: audiograbber 1.83.01
#
DISCID=d70e7c10
DTITLE=Various Artist - SC8991
DYEAR=1900
DGENRE=Karaoke
TTITLE0=McBride, Martina - 'Til I Can Make It On My Own
TTITLE1=Dixie Chicks - Not Ready To Make Nice
TTITLE2=Underwood, Carrie - Before He Cheats
TTITLE3=Lambert, Miranda - Kerosene
TTITLE4=Underwood, Carrie - Some Hearts
TTITLE5=Wilson, Gretchen - One Bud Wiser
TTITLE6=Wreckers, The - Leave The Pieces
TTITLE7=Womack, Lee Ann - Twenty Years And Two Husbands Ago
TTITLE8=Yearwood, Trisha - Georgia Rain (Radio Version)
TTITLE9=Hill, Faith - Sunshine And Summertime
TTITLE10=Wilson, Gretchen - California Girls
TTITLE11=Little Big Town - Boondocks
TTITLE12=Evans, Sara - You'll Always Be My Baby
TTITLE13=Paisley, Brad - When I Get Where I'm Going
TTITLE14=McBride, Martina - Help Me Make It Through The Night
TTITLE15=Data - Data Track
EXTD=
EXTT0=
EXTT1=
EXTT2=
EXTT3=
EXTT4=
EXTT5=
EXTT6=
EXTT7=
EXTT8=
EXTT9=
EXTT10=
EXTT11=
EXTT12=
EXTT13=
EXTT14=
EXTT15=
PLAYORDER=
